<svg width="512" height="512" viewBox="0 0 512 512" fill="none" xmlns="http://www.w3.org/2000/svg" xmlns:xlink="http://www.w3.org/1999/xlink" class=""><rect id="«r9»" width="512" height="512" x="0" y="0" rx="128" fill="url(#«ra»)" stroke="#FFFFFF" stroke-width="0" stroke-opacity="100%" paint-order="stroke"></rect><clipPath id="clip"><use xlink:href="#«r9»"></use></clipPath><defs><linearGradient id="«ra»" gradientUnits="userSpaceOnUse" gradientTransform="rotate(45)" style="transform-origin: center center;"><stop stop-color="#F5AF19"></stop><stop offset="1" stop-color="#F12711"></stop></linearGradient><radialGradient id="«rb»" cx="0" cy="0" r="1" gradientUnits="userSpaceOnUse" gradientTransform="translate(256) rotate(90) scale(512)"><stop stop-color="white"></stop><stop offset="1" stop-color="white" stop-opacity="0"></stop></radialGradient></defs><svg xmlns="http://www.w3.org/2000/svg" fill="none" viewBox="0 0 16 16" width="352" height="352" x="80" y="80" alignment-baseline="middle" style="color: rgb(255, 255, 255);"><path stroke="currentColor" stroke-linecap="round" stroke-linejoin="round" stroke-width="1.5" d="M7.086 2.146a1.25 1.25 0 0 1 1.827 0l.659.706c.246.264.595.408.955.396l.965-.033a1.25 1.25 0 0 1 1.292 1.292l-.033.964c-.012.361.132.71.396.956l.705.66a1.25 1.25 0 0 1 0 1.826l-.705.659a1.25 1.25 0 0 0-.396.955l.033.965a1.25 1.25 0 0 1-1.292 1.292l-.965-.033a1.25 1.25 0 0 0-.955.396l-.66.705a1.25 1.25 0 0 1-1.826 0l-.66-.705a1.25 1.25 0 0 0-.955-.396l-.965.033a1.25 1.25 0 0 1-1.291-1.292l.033-.965a1.25 1.25 0 0 0-.396-.955l-.706-.66a1.25 1.25 0 0 1 0-1.826l.706-.66a1.25 1.25 0 0 0 .396-.955l-.033-.965a1.25 1.25 0 0 1 1.292-1.291l.964.033c.361.012.71-.133.956-.396l.66-.706Z"></path><path stroke="currentColor" stroke-linecap="round" stroke-linejoin="round" stroke-width="1.5" d="M9.75 6.25s-1.885 2.04-2.5 4l-1.5-1.5"></path></svg></svg>